<svg width="200" height="200" viewBox="0 0 200 200" fill="none" xmlns="http://www.w3.org/2000/svg">
<rect width="200" height="200" rx="5" fill="#334155"/>
<path d="M167 166.875L109.115 103M36 176H133.489M121.301 72.5833C121.301 78.1755 120.198 83.7128 118.055 88.8793C115.911 94.0457 112.77 98.7401 108.809 102.694C104.849 106.649 100.147 109.785 94.9724 111.925C89.7978 114.065 84.2516 115.167 78.6507 115.167C73.0497 115.167 67.5036 114.065 62.329 111.925C57.1544 109.785 52.4526 106.649 48.4921 102.694C44.5316 98.7401 41.39 94.0457 39.2466 88.8793C37.1032 83.7128 36 78.1755 36 72.5833C36 61.2895 40.4935 50.4583 48.4921 42.4724C56.4906 34.4864 67.339 30 78.6507 30C89.9623 30 100.811 34.4864 108.809 42.4724C116.808 50.4583 121.301 61.2895 121.301 72.5833Z" stroke="white" stroke-width="10" stroke-linecap="round" stroke-linejoin="round"/>
<path d="M65.348 92L56.0014 57.8182H60.2074L67.3509 85.6577H67.6847L74.9616 57.8182H79.6349L86.9119 85.6577H87.2457L94.3892 57.8182H98.5952L89.2486 92H84.9759L77.4318 64.7614H77.1648L69.6207 92H65.348Z" fill="white"/>
</svg>
